<svg xmlns="http://www.w3.org/2000/svg" xmlns:xlink="http://www.w3.org/1999/xlink" xml:space="preserve" width="512" height="512"><defs><linearGradient id="a"><stop offset="0" style="stop-color:#000;stop-opacity:1"/></linearGradient><linearGradient xlink:href="#a" id="b" x1="191.257" x2="361.215" y1="404.755" y2="404.755" gradientTransform="translate(-20.547 -3.483)" gradientUnits="userSpaceOnUse"/></defs><path fill="none" d="m111.68 114.26 57.817 58.061a2.89 2.89 0 0 1 0 4.084l-57.817 58.062a2.86 2.86 0 0 1-4.067 0l-57.817-58.062a2.89 2.89 0 0 1 0-4.084l57.817-58.061c1.127-1.131 4.067 0 4.067 0v0" style="color:#000;clip-rule:nonzero;display:inline;overflow:visible;visibility:visible;opacity:1;isolation:auto;mix-blend-mode:normal;color-interpolation:sRGB;color-interpolation-filters:linearRGB;solid-color:#000;solid-opacity:1;fill:#f67c5f;fill-opacity:0;fill-rule:evenodd;stroke:#000;stroke-width:16;stroke-linecap:round;stroke-linejoin:miter;stroke-miterlimit:4;stroke-dasharray:none;stroke-dashoffset:0;stroke-opacity:1;color-rendering:auto;image-rendering:auto;shape-rendering:auto;text-rendering:auto"/><path fill="none" d="m104.35 317.888 34.768 34.914c.677.68.677 1.775 0 2.456l-34.768 34.914a1.72 1.72 0 0 1-2.445 0l-34.767-34.914a1.74 1.74 0 0 1 0-2.456l34.767-34.915c.677-.68 2.445 0 2.445 0v0" style="color:#000;clip-rule:nonzero;display:inline;overflow:visible;visibility:visible;opacity:1;isolation:auto;mix-blend-mode:normal;color-interpolation:sRGB;color-interpolation-filters:linearRGB;solid-color:#000;solid-opacity:1;fill:#f65e3b;fill-opacity:0;fill-rule:evenodd;stroke:#000;stroke-width:16;stroke-linecap:round;stroke-linejoin:miter;stroke-miterlimit:4;stroke-dasharray:none;stroke-dashoffset:0;stroke-opacity:1;color-rendering:auto;image-rendering:auto;shape-rendering:auto;text-rendering:auto"/><path fill="none" d="m446.191 199.13 29.926 30.051a1.496 1.496 0 0 1 0 2.114l-29.926 30.053a1.48 1.48 0 0 1-2.105 0l-29.926-30.053a1.496 1.496 0 0 1 0-2.114l29.926-30.052c.583-.586 2.105 0 2.105 0v0" style="color:#000;clip-rule:nonzero;display:inline;overflow:visible;visibility:visible;opacity:1;isolation:auto;mix-blend-mode:normal;color-interpolation:sRGB;color-interpolation-filters:linearRGB;solid-color:#000;solid-opacity:1;fill:#eee4da;fill-opacity:0;fill-rule:evenodd;stroke:#000;stroke-width:16;stroke-linecap:round;stroke-linejoin:miter;stroke-miterlimit:4;stroke-dasharray:none;stroke-dashoffset:0;stroke-opacity:1;color-rendering:auto;image-rendering:auto;shape-rendering:auto;text-rendering:auto"/><path fill="none" d="M255.114 162.13 355.49 262.933a5.015 5.015 0 0 1 0 7.09L255.114 370.827a4.967 4.967 0 0 1-7.062 0L147.675 270.023a5.015 5.015 0 0 1 0-7.09L248.052 162.13c1.944-1.964 7.062 0 7.062 0v0" style="color:#000;clip-rule:nonzero;display:inline;overflow:visible;visibility:visible;opacity:1;isolation:auto;mix-blend-mode:normal;color-interpolation:sRGB;color-interpolation-filters:linearRGB;solid-color:#000;solid-opacity:1;fill:#edcf72;fill-opacity:0;fill-rule:evenodd;stroke:#000;stroke-width:16;stroke-linecap:round;stroke-linejoin:miter;stroke-miterlimit:4;stroke-dasharray:none;stroke-dashoffset:0;stroke-opacity:1;color-rendering:auto;image-rendering:auto;shape-rendering:auto;text-rendering:auto"/><path d="m252.047 329.926 62.932-62.931-41.955-41.953-20.977 20.976-20.977-20.976-20.976 20.976 20.976 20.977 20.977-20.977 20.977 20.977-41.954 41.953z" style="fill:none;stroke:#000;stroke-width:16;stroke-linejoin:round;stroke-miterlimit:1.1;stroke-dasharray:none;stroke-opacity:1"/><path fill="none" d="m406.569 304.145 49.713 49.923a2.485 2.485 0 0 1 0 3.512l-49.713 49.924a2.46 2.46 0 0 1-3.497 0l-49.713-49.924a2.485 2.485 0 0 1 0-3.512l49.713-49.923c.969-.973 3.497 0 3.497 0v0M221.309 39.364l39.303 39.47a1.965 1.965 0 0 1 0 2.777l-39.303 39.47a1.945 1.945 0 0 1-2.765 0l-39.303-39.47a1.965 1.965 0 0 1 0-2.776l39.303-39.47c.766-.77 2.765 0 2.765 0v0" style="color:#000;clip-rule:nonzero;display:inline;overflow:visible;visibility:visible;opacity:1;isolation:auto;mix-blend-mode:normal;color-interpolation:sRGB;color-interpolation-filters:linearRGB;solid-color:#000;solid-opacity:1;fill:#eee4da;fill-opacity:0;fill-rule:evenodd;stroke:#000;stroke-width:16;stroke-linecap:round;stroke-linejoin:miter;stroke-miterlimit:4;stroke-dasharray:none;stroke-dashoffset:0;stroke-opacity:1;color-rendering:auto;image-rendering:auto;shape-rendering:auto;text-rendering:auto"/><path d="M379.114 130.84h-8.898l-3.902-80.085h16.703zm-14.205 22.95q0-5.777 2.81-8.119t6.868-2.341q3.903 0 6.713 2.341 2.966 2.342 2.966 8.118 0 5.62-2.966 8.118-2.81 2.498-6.713 2.498-4.058 0-6.868-2.498t-2.81-8.118" aria-label="!" style="font-size:146.667px;line-height:1.15;font-family:&quot;Noto Sans&quot;;-inkscape-font-specification:&quot;Noto Sans&quot;;text-align:center;letter-spacing:.1px;word-spacing:-1px;text-anchor:middle;white-space:pre;stroke-width:10.7295;stroke-linejoin:round;stroke-miterlimit:1.1;stroke-dasharray:none"/><path d="M191.528 483.878H178.66v-35.194q0-2.216.085-5.795.17-3.579.256-6.306-.426.511-1.875 1.875-1.363 1.278-2.556 2.3l-6.988 5.625-6.221-7.755 19.6-15.594h10.567zm57.228-47.21q0 6.306-3.835 10.056-3.75 3.75-9.288 5.113v.256q7.328.852 11.078 4.43 3.835 3.58 3.835 9.63 0 5.284-2.642 9.545-2.556 4.175-8.01 6.647-5.369 2.386-13.89 2.386-9.886 0-17.555-3.324V470.5q3.92 1.96 8.18 2.983 4.347 1.023 8.01 1.023 6.903 0 9.63-2.387 2.813-2.386 2.813-6.732 0-2.556-1.279-4.26-1.278-1.79-4.516-2.642-3.153-.938-8.863-.938h-4.602v-9.885h4.687q5.625 0 8.522-1.022 2.983-1.108 4.005-2.898 1.108-1.874 1.108-4.26 0-3.239-2.045-5.028-1.96-1.875-6.647-1.875-4.346 0-7.584 1.534-3.153 1.448-5.369 2.897l-5.965-8.862q3.579-2.557 8.351-4.261 4.857-1.705 11.504-1.705 9.374 0 14.828 3.835 5.54 3.75 5.54 10.652m48.876 0q0 6.306-3.834 10.056-3.75 3.75-9.289 5.113v.256q7.329.852 11.078 4.43 3.835 3.58 3.835 9.63 0 5.284-2.642 9.545-2.556 4.175-8.01 6.647-5.369 2.386-13.89 2.386-9.886 0-17.555-3.324V470.5q3.92 1.96 8.18 2.983 4.347 1.023 8.011 1.023 6.903 0 9.63-2.387 2.812-2.386 2.812-6.732 0-2.556-1.279-4.26-1.278-1.79-4.516-2.642-3.153-.938-8.863-.938H266.7v-9.885h4.687q5.624 0 8.521-1.022 2.983-1.108 4.005-2.898 1.108-1.874 1.108-4.26 0-3.239-2.045-5.028-1.96-1.875-6.647-1.875-4.346 0-7.584 1.534-3.153 1.448-5.369 2.897l-5.965-8.862q3.58-2.557 8.351-4.261 4.858-1.705 11.505-1.705 9.373 0 14.827 3.835 5.54 3.75 5.54 10.652m14.791 47.21 22.838-50.022h-29.996v-10.822h43.631v8.095l-23.009 52.75z" aria-label="1337" style="font-weight:700;font-size:64px;line-height:1.15;font-family:&quot;Noto Sans&quot;;-inkscape-font-specification:&quot;Noto Sans Bold&quot;;text-align:center;letter-spacing:.1px;word-spacing:-1px;text-anchor:middle;white-space:pre;stroke-width:13.422;stroke-linejoin:round;stroke-miterlimit:1.1;stroke-dasharray:none"/><path d="M175.458 401.658c161.544 0 161.544-.773 161.544-.773" style="opacity:1;fill:#0f0;fill-opacity:1;stroke:url(#b);stroke-width:16;stroke-linecap:round;stroke-linejoin:round;stroke-miterlimit:1.1;stroke-dasharray:none"/></svg>