<svg xmlns="http://www.w3.org/2000/svg" xmlns:xlink="http://www.w3.org/1999/xlink" xml:space="preserve" width="512" height="512"><defs><linearGradient id="a"><stop offset="0" style="stop-color:#000;stop-opacity:1"/></linearGradient><linearGradient xlink:href="#a" id="b" x1="191.257" x2="361.215" y1="404.755" y2="404.755" gradientTransform="translate(12.367 2.319)" gradientUnits="userSpaceOnUse"/></defs><path fill="none" d="m154.594 124.062 57.817 58.061a2.89 2.89 0 0 1 0 4.084l-57.817 58.062a2.86 2.86 0 0 1-4.067 0L92.71 186.207a2.89 2.89 0 0 1 0-4.084l57.817-58.061c1.127-1.131 4.067 0 4.067 0v0" style="color:#000;clip-rule:nonzero;display:inline;overflow:visible;visibility:visible;opacity:1;isolation:auto;mix-blend-mode:normal;color-interpolation:sRGB;color-interpolation-filters:linearRGB;solid-color:#000;solid-opacity:1;fill:#f67c5f;fill-opacity:0;fill-rule:evenodd;stroke:#000;stroke-width:12;stroke-linecap:round;stroke-linejoin:miter;stroke-miterlimit:4;stroke-dasharray:none;stroke-dashoffset:0;stroke-opacity:1;color-rendering:auto;image-rendering:auto;shape-rendering:auto;text-rendering:auto" transform="translate(-32.914 2.198)"/><path fill="none" d="m135.264 311.69 34.768 34.914c.677.68.677 1.775 0 2.456l-34.768 34.914a1.72 1.72 0 0 1-2.445 0L98.052 349.06a1.74 1.74 0 0 1 0-2.456l34.767-34.915c.677-.68 2.445 0 2.445 0v0" style="color:#000;clip-rule:nonzero;display:inline;overflow:visible;visibility:visible;opacity:1;isolation:auto;mix-blend-mode:normal;color-interpolation:sRGB;color-interpolation-filters:linearRGB;solid-color:#000;solid-opacity:1;fill:#f65e3b;fill-opacity:0;fill-rule:evenodd;stroke:#000;stroke-width:12;stroke-linecap:round;stroke-linejoin:miter;stroke-miterlimit:4;stroke-dasharray:none;stroke-dashoffset:0;stroke-opacity:1;color-rendering:auto;image-rendering:auto;shape-rendering:auto;text-rendering:auto" transform="translate(-32.914 2.198)"/><path fill="none" d="m462.226 188.179 29.926 30.052a1.496 1.496 0 0 1 0 2.114l-29.926 30.053a1.48 1.48 0 0 1-2.105 0l-29.926-30.053a1.496 1.496 0 0 1 0-2.114l29.926-30.052c.583-.586 2.105 0 2.105 0v0" style="color:#000;clip-rule:nonzero;display:inline;overflow:visible;visibility:visible;opacity:1;isolation:auto;mix-blend-mode:normal;color-interpolation:sRGB;color-interpolation-filters:linearRGB;solid-color:#000;solid-opacity:1;fill:#eee4da;fill-opacity:0;fill-rule:evenodd;stroke:#000;stroke-width:12;stroke-linecap:round;stroke-linejoin:miter;stroke-miterlimit:4;stroke-dasharray:none;stroke-dashoffset:0;stroke-opacity:1;color-rendering:auto;image-rendering:auto;shape-rendering:auto;text-rendering:auto" transform="translate(-32.914 2.198)"/><path fill="none" d="m287.433 205.51 83.468 83.823a4.17 4.17 0 0 1 0 5.895l-83.468 83.823a4.13 4.13 0 0 1-5.872 0l-83.468-83.823a4.17 4.17 0 0 1 0-5.895l83.468-83.823a4.13 4.13 0 0 1 5.872 0q0 0 0 0" style="color:#000;clip-rule:nonzero;display:inline;overflow:visible;visibility:visible;opacity:1;isolation:auto;mix-blend-mode:normal;color-interpolation:sRGB;color-interpolation-filters:linearRGB;solid-color:#000;solid-opacity:1;fill:#edcf72;fill-opacity:0;fill-rule:evenodd;stroke:#000;stroke-width:12;stroke-linecap:round;stroke-linejoin:miter;stroke-miterlimit:4;stroke-dasharray:none;stroke-dashoffset:0;stroke-opacity:1;color-rendering:auto;image-rendering:auto;shape-rendering:auto;text-rendering:auto" transform="translate(-32.914 2.198)"/><path d="m284.883 345.04 52.33-52.33-34.887-34.886-17.443 17.443-17.443-17.443-17.443 17.443 17.443 17.443 17.443-17.443 17.443 17.443-34.886 34.886z" style="fill:none;stroke:#000;stroke-width:12;stroke-linejoin:round;stroke-miterlimit:1.1;stroke-dasharray:none;stroke-opacity:1" transform="translate(-32.914 2.198)"/><path fill="none" d="m435.483 311.947 49.713 49.923a2.485 2.485 0 0 1 0 3.512l-49.713 49.924a2.46 2.46 0 0 1-3.497 0l-49.713-49.924a2.485 2.485 0 0 1 0-3.512l49.713-49.923c.969-.973 3.497 0 3.497 0v0M250.223 47.166l39.303 39.47a1.965 1.965 0 0 1 0 2.777l-39.303 39.47a1.945 1.945 0 0 1-2.765 0l-39.303-39.47a1.965 1.965 0 0 1 0-2.776l39.303-39.47c.766-.77 2.765 0 2.765 0v0" style="color:#000;clip-rule:nonzero;display:inline;overflow:visible;visibility:visible;opacity:1;isolation:auto;mix-blend-mode:normal;color-interpolation:sRGB;color-interpolation-filters:linearRGB;solid-color:#000;solid-opacity:1;fill:#eee4da;fill-opacity:0;fill-rule:evenodd;stroke:#000;stroke-width:12;stroke-linecap:round;stroke-linejoin:miter;stroke-miterlimit:4;stroke-dasharray:none;stroke-dashoffset:0;stroke-opacity:1;color-rendering:auto;image-rendering:auto;shape-rendering:auto;text-rendering:auto" transform="translate(-32.914 2.198)"/><path d="M383.371 127.548h-8.36l-3.666-75.24h15.693zm-13.346 21.56q0-5.427 2.64-7.627t6.453-2.2q3.667 0 6.307 2.2 2.786 2.2 2.786 7.627 0 5.28-2.786 7.626-2.64 2.347-6.307 2.347-3.813 0-6.453-2.347t-2.64-7.626" aria-label="!" style="font-size:146.667px;line-height:1.15;font-family:&quot;Noto Sans&quot;;-inkscape-font-specification:&quot;Noto Sans&quot;;text-align:center;letter-spacing:.1px;word-spacing:-1px;text-anchor:middle;white-space:pre;stroke-width:10.08026075;stroke-linejoin:round;stroke-miterlimit:1.1;stroke-dasharray:none" transform="translate(-32.914 2.198)"/><path d="M240.277 478.106h-9.664v-26.432q0-1.664.064-4.352.128-2.688.192-4.736-.32.384-1.408 1.408-1.024.96-1.92 1.728l-5.248 4.224-4.672-5.824 14.72-11.712h7.936zm42.98-35.456q0 4.736-2.88 7.552-2.816 2.816-6.976 3.84v.192q5.504.64 8.32 3.328 2.88 2.688 2.88 7.232 0 3.968-1.984 7.168-1.92 3.136-6.016 4.992-4.032 1.792-10.432 1.792-7.424 0-13.184-2.496v-8.192q2.944 1.472 6.144 2.24 3.264.768 6.016.768 5.184 0 7.232-1.792 2.112-1.792 2.112-5.056 0-1.92-.96-3.2-.96-1.344-3.392-1.984-2.368-.704-6.656-.704h-3.456v-7.424h3.52q4.224 0 6.4-.768 2.24-.832 3.008-2.176.832-1.408.832-3.2 0-2.432-1.536-3.776-1.472-1.408-4.992-1.408-3.264 0-5.696 1.152-2.368 1.088-4.032 2.176l-4.48-6.656q2.688-1.92 6.272-3.2 3.648-1.28 8.64-1.28 7.04 0 11.136 2.88 4.16 2.816 4.16 8m36.708 0q0 4.736-2.88 7.552-2.816 2.816-6.976 3.84v.192q5.504.64 8.32 3.328 2.88 2.688 2.88 7.232 0 3.968-1.984 7.168-1.92 3.136-6.016 4.992-4.032 1.792-10.432 1.792-7.424 0-13.184-2.496v-8.192q2.944 1.472 6.144 2.24 3.264.768 6.016.768 5.184 0 7.232-1.792 2.112-1.792 2.112-5.056 0-1.92-.96-3.2-.96-1.344-3.392-1.984-2.368-.704-6.656-.704h-3.456v-7.424h3.52q4.224 0 6.4-.768 2.24-.832 3.008-2.176.832-1.408.832-3.2 0-2.432-1.536-3.776-1.472-1.408-4.992-1.408-3.264 0-5.696 1.152-2.368 1.088-4.032 2.176l-4.48-6.656q2.688-1.92 6.272-3.2 3.648-1.28 8.64-1.28 7.04 0 11.136 2.88 4.16 2.816 4.16 8m11.109 35.456 17.152-37.568h-22.528v-8.128h32.768v6.08l-17.28 39.616z" aria-label="1337" style="font-weight:700;font-size:64px;line-height:1.15;font-family:&quot;Noto Sans&quot;;-inkscape-font-specification:&quot;Noto Sans Bold&quot;;text-align:center;letter-spacing:.1px;word-spacing:-1px;text-anchor:middle;white-space:pre;stroke-width:10.08026075;stroke-linejoin:round;stroke-miterlimit:1.1;stroke-dasharray:none" transform="translate(-32.914 2.198)"/><path d="M208.372 407.46c161.544 0 161.544-.773 161.544-.773" style="opacity:1;fill:#0f0;fill-opacity:1;stroke:url(#b);stroke-width:12;stroke-linecap:round;stroke-linejoin:round;stroke-miterlimit:1.1;stroke-dasharray:none" transform="translate(-32.914 2.198)"/></svg>